 <svg xmlns="http://www.w3.org/2000/svg" xmlns:xlink="http://www.w3.org/1999/xlink" style="display:none">
    <!-- Udemy -->
    <symbol id="udemy" viewBox="0 0 91 34">
        <g fill="none">
            <path d="M14.05 8.11L7.02 4.06 0 8.1V4.06L7.03 0l7.02 4.06V8.1z" fill="#A435F0"/>
            <path d="M0 11.52h3.68v8.94a3.27 3.27 0 003.35 3.44 3.3 3.3 0 003.34-3.47v-8.91h3.68v9.15c0 2.13-.67 3.77-2 4.9a7.55 7.55 0 01-5.06 1.67 7.4 7.4 0 01-5.01-1.67C.67 24.44 0 22.87 0 20.77v-9.25zm45.87 11.11a5.57 5.57 0 01-3.83 1.48c-2.64 0-4.41-1.5-4.61-3.83h11.89s.08-.76.08-1.46c0-2.2-.7-4.02-2.13-5.5a7.13 7.13 0 00-5.45-2.23 7.9 7.9 0 00-5.78 2.22 7.93 7.93 0 00-2.25 5.87v.12c0 2.4.76 4.32 2.25 5.75a8.17 8.17 0 005.87 2.16c2.8 0 5.02-1.1 6.69-3l-2.73-1.58zm-7-7.46a4.7 4.7 0 012.95-.98c1.07 0 1.95.34 2.7 1a3 3 0 011.16 2.23h-8.16c.12-.9.57-1.64 1.35-2.25zm44.04 14.1C81.41 32.8 79.86 34 77.46 34H75.8v-3.26h1.34c.83 0 1.6-.31 2.32-2l.73-1.68-6.3-15.54h3.75L82.1 22.7l4.6-11.2h3.73L82.9 29.27zM28.38 5.66v7.26a7.58 7.58 0 00-4.9-1.73c-2.16 0-3.98.76-5.47 2.31a7.87 7.87 0 00-2.2 5.69 8 8 0 002.2 5.72 7.37 7.37 0 005.47 2.28c2.5 0 4.06-.98 4.9-1.75v1.42h3.65V5.65h-3.65zm-1.1 16.88c-.88.88-2 1.34-3.31 1.34a4.4 4.4 0 01-3.26-1.34c-.85-.89-1.27-2.01-1.27-3.35 0-1.34.42-2.46 1.27-3.34.88-.89 1.95-1.34 3.26-1.34s2.43.45 3.31 1.34c.91.88 1.37 2 1.37 3.34 0 1.34-.46 2.47-1.37 3.35zM68.22 11.2a6.39 6.39 0 00-5.2 2.26c-.4-.75-1.5-2.26-4.1-2.26a5.17 5.17 0 00-4.14 1.9v-1.59h-3.62v15.33h3.62v-8.82c0-2.07 1.28-3.56 2.98-3.56 1.74 0 2.74 1.3 2.74 3.4v8.98h3.62v-8.82c0-2.1 1.24-3.56 3.04-3.56 1.73 0 2.73 1.3 2.73 3.4v8.97h3.65v-9.48c0-4-2.14-6.15-5.32-6.15z" fill="#fff"/>
        </g>
    </symbol>

    <!-- University -->
    <symbol id="university"  viewBox="0 0 24 24">
        <g fill="none" stroke-width="1.5" stroke="#ededfcff">
            <path stroke-linecap="round" stroke-linejoin="round" d="M4.26 10.147a60.438 60.438 0 0 0-.491 6.347A48.62 48.62 0 0 1 12 20.904a48.62 48.62 0 0 1 8.232-4.41 60.46 60.46 0 0 0-.491-6.347m-15.482 0a50.636 50.636 0 0 0-2.658-.813A59.906 59.906 0 0 1 12 3.493a59.903 59.903 0 0 1 10.399 5.84c-.896.248-1.783.52-2.658.814m-15.482 0A50.717 50.717 0 0 1 12 13.489a50.702 50.702 0 0 1 7.74-3.342M6.75 15a.75.75 0 1 0 0-1.5.75.75 0 0 0 0 1.5Zm0 0v-3.675A55.378 55.378 0 0 1 12 8.443m-7.007 11.55A5.981 5.981 0 0 0 6.75 15.75v-1.5" />
        </g>
    </symbol>

    <!-- Cisco -->
    <symbol id="cisco" viewBox="0 0 52 28">
        <g fill="none">
            <path fill-rule="evenodd" clip-rule="evenodd" d="M51.2293 8.37685C51.2293 7.76429 50.7317 7.26562 50.1181 7.26562C49.5033 7.26562 49.0068 7.76429 49.0068 8.37685V10.7143C49.0068 11.3302 49.5033 11.8288 50.1181 11.8288C50.7317 11.8288 51.2293 11.3302 51.2293 10.7143V8.37685ZM45.1136 5.30654C45.1136 4.69288 44.6172 4.19531 43.988 4.19531C43.3744 4.19531 42.8779 4.69288 42.8779 5.30654V10.7123C42.8779 11.3282 43.3744 11.8268 43.988 11.8268C44.6172 11.8268 45.1136 11.3282 45.1136 10.7123V5.30654ZM38.9853 1.11012C38.9853 0.495352 38.4877 0 37.8741 0C37.2604 0 36.7617 0.495352 36.7617 1.11012V12.93C36.7617 13.5481 37.2604 14.0446 37.8741 14.0446C38.4877 14.0446 38.9853 13.5481 38.9853 12.93V1.11012ZM32.8551 5.30654C32.8551 4.69288 32.3587 4.19531 31.7439 4.19531C31.1291 4.19531 30.6338 4.69288 30.6338 5.30654V10.7123C30.6338 11.3282 31.1291 11.8268 31.7439 11.8268C32.3587 11.8268 32.8551 11.3282 32.8551 10.7123V5.30654ZM26.7254 8.37685C26.7254 7.76429 26.23 7.26562 25.6197 7.26562C25.0038 7.26562 24.5029 7.76429 24.5029 8.37685V10.7143C24.5029 11.3302 25.0038 11.8288 25.6197 11.8288C26.23 11.8288 26.7254 11.3302 26.7254 10.7143V8.37685ZM20.6103 5.30654C20.6103 4.69288 20.1083 4.19531 19.4936 4.19531C18.8788 4.19531 18.3779 4.69288 18.3779 5.30654V10.7123C18.3779 11.3282 18.8788 11.8268 19.4936 11.8268C20.1083 11.8268 20.6103 11.3282 20.6103 10.7123V5.30654ZM14.4801 1.11012C14.4801 0.495352 13.9814 0 13.3655 0C12.7541 0 12.251 0.495352 12.251 1.11012V12.93C12.251 13.5481 12.7541 14.0446 13.3655 14.0446C13.9814 14.0446 14.4801 13.5481 14.4801 12.93V1.11012ZM8.35617 5.30654C8.35617 4.69288 7.85418 4.19531 7.24273 4.19531C6.62686 4.19531 6.12598 4.69288 6.12598 5.30654V10.7123C6.12598 11.3282 6.62686 11.8268 7.24273 11.8268C7.85418 11.8268 8.35617 11.3282 8.35617 10.7123V5.30654ZM2.23019 8.37685C2.23019 7.76429 1.72931 7.26562 1.11454 7.26562C0.500881 7.26562 0 7.76429 0 8.37685V10.7143C0 11.3302 0.500881 11.8288 1.11454 11.8288C1.72931 11.8288 2.23019 11.3302 2.23019 10.7143V8.37685ZM25.2545 18.0665C25.186 18.0488 24.1588 17.7812 23.0642 17.7812C20.9954 17.7812 19.7471 18.9002 19.7471 20.5643C19.7471 22.0404 20.7897 22.7735 22.0436 23.1693C22.1818 23.2157 22.3864 23.2777 22.5213 23.3241C23.0807 23.4988 23.523 23.7598 23.523 24.2109C23.523 24.7151 23.0089 25.0413 21.8921 25.0413C20.9114 25.0413 19.9693 24.7615 19.7692 24.7106V26.7606C19.8809 26.7849 20.9998 27.0028 22.1951 27.0028C23.9133 27.0028 25.8804 26.252 25.8804 24.0163C25.8804 22.9316 25.2158 21.9331 23.7585 21.4687L23.1382 21.2719C22.7689 21.1547 22.1088 20.9657 22.1088 20.4239C22.1088 19.9949 22.5987 19.6941 23.4998 19.6941C24.276 19.6941 25.2203 19.955 25.2545 19.9683V18.0665ZM41.9169 20.0469C43.246 20.0469 44.2389 21.0951 44.2389 22.3887C44.2389 23.6824 43.246 24.7306 41.9169 24.7306C40.5824 24.7306 39.5928 23.6824 39.5928 22.3887C39.5928 21.0951 40.5824 20.0469 41.9169 20.0469ZM46.6202 22.3898C46.6202 19.8445 44.6542 17.7812 41.9176 17.7812C39.1788 17.7812 37.2129 19.8445 37.2129 22.3898C37.2129 24.934 39.1788 26.9983 41.9176 26.9983C44.6542 26.9983 46.6202 24.934 46.6202 22.3898ZM11.4013 18.0975C11.1901 18.0378 10.4095 17.7812 9.35242 17.7812C6.62025 17.7812 4.6123 19.7284 4.6123 22.3898C4.6123 25.2569 6.82701 26.9983 9.35242 26.9983C10.3564 26.9983 11.1215 26.7606 11.4013 26.6821V24.2916C11.3051 24.3458 10.5709 24.7637 9.51275 24.7637C8.01674 24.7637 7.05147 23.7111 7.05147 22.3898C7.05147 21.0243 8.05876 20.0148 9.51275 20.0148C10.5886 20.0148 11.3117 20.4427 11.4013 20.4891V18.0975ZM34.8467 18.0975C34.6355 18.0378 33.8538 17.7812 32.799 17.7812C30.0624 17.7812 28.0566 19.7284 28.0566 22.3898C28.0566 25.2569 30.2725 26.9983 32.799 26.9983C33.7974 26.9983 34.5648 26.7606 34.8467 26.6821V24.2916C34.7483 24.3458 34.0141 24.7637 32.9582 24.7637C31.4633 24.7637 30.498 23.7111 30.498 22.3898C30.498 21.0243 31.5053 20.0148 32.9582 20.0148C34.0318 20.0148 34.7572 20.4427 34.8467 20.4891V18.0975ZM14.4893 26.8406H16.736V17.9375H14.4893V26.8406Z" fill="#fff"/>
        </g>
    </symbol>

    <!-- Platzi style="color:#98ca3f" -->
    <symbol id="platzi" viewBox="0 0 24 24">
        <path d="M10.64 1.13 2.49 9.28a3.84 3.84 0 0 0 0 5.44l8.15 8.15a3.84 3.84 0 0 0 5.44 0l2.72-2.71-2.72-2.72-2.72 2.72L5.2 12l8.16-8.16 5.44 5.44-5.44 5.44 2.72 2.72L21.5 12a3.84 3.84 0 0 0 0-5.44l-5.44-5.43a3.83 3.83 0 0 0-5.43 0z" fill="#98ca3f"/>
    </symbol>

    <!-- Domestika -->
    <symbol id="domestika" viewBox="0 0 24 24" >
        <g fill="none" stroke-width="1.5" stroke="#ededfcff">
            <path stroke-linecap="round" stroke-linejoin="round" d="M9.53 16.122a3 3 0 0 0-5.78 1.128 2.25 2.25 0 0 1-2.4 2.245 4.5 4.5 0 0 0 8.4-2.245c0-.399-.078-.78-.22-1.128Zm0 0a15.998 15.998 0 0 0 3.388-1.62m-5.043-.025a15.994 15.994 0 0 1 1.622-3.395m3.42 3.42a15.995 15.995 0 0 0 4.764-4.648l3.876-5.814a1.151 1.151 0 0 0-1.597-1.597L14.146 6.32a15.996 15.996 0 0 0-4.649 4.763m3.42 3.42a6.776 6.776 0 0 0-3.42-3.42" />
        </g>
    </symbol>

    <symbol id="back-arrow" fill="none" viewBox="0 0 24 24" stroke-width="1.5" stroke="currentColor">
        <path stroke-linecap="round" stroke-linejoin="round" d="M10.5 19.5 3 12m0 0 7.5-7.5M3 12h18" />
    </symbol>

</svg>